<svg width="35" height="26" viewBox="0 0 35 26" fill="none" xmlns="http://www.w3.org/2000/svg">
<g clip-path="url(#clip0_307_70)">
<path d="M33 0.5H2C1.17157 0.5 0.5 1.17157 0.5 2V24C0.5 24.8284 1.17157 25.5 2 25.5H33C33.8284 25.5 34.5 24.8284 34.5 24V2C34.5 1.17157 33.8284 0.5 33 0.5Z" stroke="black" stroke-opacity="0.26"/>
<path d="M26 7.74257V5C26 4.44771 25.5523 4 25 4H10.6186C9.7005 4 9.26763 5.13349 9.952 5.74545L17.3228 12.3363C17.7703 12.7364 17.7668 13.4379 17.3154 13.8337L9.99847 20.248C9.30449 20.8564 9.73478 22 10.6577 22H25C25.5523 22 26 21.5523 26 21V19.1485" stroke="#021752" stroke-width="2" stroke-linejoin="round"/>
</g>
<defs>
<clipPath id="clip0_307_70">
<rect width="35" height="26" fill="white"/>
</clipPath>
</defs>
</svg>
